# xmcd
#
# Track frame offsets:
#	150
#	18277
#	36392
#	54153
#	69601
#	83616
#	99529
#	115643
#	133310
#	154940
#	171853
#	189043
#	210070
#	224554
#	245549
#	260060
#	277444
#	296671
#	315598
#	331760
#
# Disc length: 4622 seconds
#
# Revision: 0
# Processed by: cddbd v1.5.2PL0 Copyright (c) Steve Scherf et al.
# Submitted via: audiograbber 1.83.01
#
DISCID=24120c14
DTITLE=Various Artist - Massive R&B Vol.2 [CD1]
DYEAR=2005
DGENRE=R&B
TTITLE0=Kanye West - Diamonds
TTITLE1=Amerie - One Thing
TTITLE2=Bobby Valentino - Slow Down
TTITLE3=R Kelly - Trapped In The Closet Pt 1
TTITLE4=Ashanti - Only You
TTITLE5=Lady Sovereign - 9 To 5
TTITLE6=Christina Milian - Whatever U Want
TTITLE7=Akon Feat Styles - Locked Up
TTITLE8=Justin Timberlake - Cry Me A River
TTITLE9=Franki J - Obsessions
TTITLE10=Alicia Keys and Usher - If I Ain't Got You
TTITLE11=John Legend - Ordinary People (Johnny Doyle's Remix)
TTITLE12=Lemar - Don't Give Up
TTITLE13=Superfly Vs Fishbowl - Let's Get Down (R&B Version)
TTITLE14=Daddy Yankee - Gasolina
TTITLE15=Snoop Dogg - Lets Get Blown
TTITLE16=Usher - Burn
TTITLE17=J-Lo And R Kelly - Baby I Love You (R Kelly Mix)
TTITLE18=Rihanna - Pon De Replay
TTITLE19=Will Smith - Switch
EXTD=
EXTT0=
EXTT1=
EXTT2=
EXTT3=
EXTT4=
EXTT5=
EXTT6=
EXTT7=
EXTT8=
EXTT9=
EXTT10=
EXTT11=
EXTT12=
EXTT13=
EXTT14=
EXTT15=
EXTT16=
EXTT17=
EXTT18=
EXTT19=
PLAYORDER=
